<svg width="54" height="52" viewBox="0 0 54 52" fill="none" xmlns="http://www.w3.org/2000/svg">
<path fill-rule="evenodd" clip-rule="evenodd" d="M39.3816 13.7728C39.3816 21.3797 34.0605 27.5461 27.4974 27.5461C20.9337 27.5461 15.6132 21.3797 15.6132 13.7728C15.6132 3.22421 20.9337 -0.000366211 27.4974 -0.000366211C34.0608 -0.000366211 39.3816 3.22421 39.3816 13.7728ZM47.7445 34.4449L53.74 47.8186C54.1535 48.7401 54.0685 49.7956 53.5134 50.6411C52.9583 51.4863 52.0187 51.9914 51 51.9914H3.9944C2.97568 51.9914 2.0362 51.4865 1.48129 50.6413C0.925907 49.7956 0.841213 48.7406 1.25451 47.8186L7.25019 34.4449C7.52478 33.8328 8.00586 33.3256 8.60571 33.0163L17.9103 28.2201C18.1154 28.1144 18.364 28.1349 18.5489 28.2733C21.1806 30.2443 24.2748 31.286 27.4974 31.286C30.7196 31.286 33.8139 30.2443 36.4457 28.2733C36.6301 28.1351 36.8786 28.1144 37.0838 28.2201L46.3888 33.0163C46.9884 33.3256 47.4702 33.833 47.7445 34.4449Z" fill="white"/>
</svg>
