<?xml version="1.0" encoding="UTF-8"?>
<svg xmlns="http://www.w3.org/2000/svg" xmlns:xlink="http://www.w3.org/1999/xlink" viewBox="0 0 32 32" width="32px" height="32px">
<g id="surface1466128">
<path style="fill-rule:nonzero;fill:rgb(0%,0%,0%);fill-opacity:1;stroke-width:10;stroke-linecap:butt;stroke-linejoin:round;stroke:rgb(100%,100%,100%);stroke-opacity:1;stroke-miterlimit:10;" d="M 69.536397 30.232598 C 69.536397 30.232598 71.091663 34.165199 72.069259 38.631035 C 78.157015 37.808966 83.133867 37.631221 86.000001 37.631221 C 88.866134 37.631221 93.842986 37.808966 99.930742 38.631035 C 100.908338 34.165199 102.463604 30.232598 102.463604 30.232598 L 103.974434 26.36665 L 108.173653 26.877666 C 108.173653 26.877666 127.014593 28.921731 140.76759 39.986339 L 140.923116 39.986339 L 141.100861 40.141865 C 144.189175 42.985781 145.522261 46.474021 147.655197 51.561963 C 149.765915 56.672123 152.032161 63.182023 154.031789 70.380684 C 158.008826 84.800224 161.252667 102.263642 161.252667 118.260666 L 161.252667 119.593751 L 160.586125 120.926836 C 155.609273 129.680763 146.766473 135.235285 138.567999 139.079015 C 130.391742 142.922744 123.304172 144.966808 118.416192 145.122335 L 115.216787 145.30008 L 113.550431 142.433946 L 107.662637 132.013663 C 101.441572 133.43562 94.242912 134.36878 86.000001 134.36878 C 77.75709 134.36878 70.558429 133.43562 64.337364 132.013663 L 58.449571 142.433946 L 56.783214 145.30008 L 53.583809 145.122335 C 48.69583 144.966808 41.608259 142.922744 33.432003 139.079015 C 25.233528 135.235285 16.390728 129.680763 11.413877 120.926836 L 10.747334 119.593751 L 10.747334 118.260666 C 10.747334 102.263642 13.991175 84.800224 17.968213 70.380684 C 19.967841 63.182023 22.234086 56.672123 24.344804 51.561963 C 26.477741 46.474021 27.810826 42.985781 30.89914 40.141865 L 31.076885 39.986339 L 31.232412 39.986339 C 44.985409 28.921731 63.826348 26.877666 63.826348 26.877666 L 68.025567 26.36665 Z M 38.120019 48.207032 C 38.164455 48.22925 36.120391 51.339782 34.27629 55.761182 C 32.365534 60.31589 30.277034 66.381428 28.388496 73.2246 C 24.74473 86.35549 21.900814 102.330296 21.678634 116.394346 C 25.055783 121.571161 31.321284 126.236959 37.964493 129.325274 C 43.763414 132.035881 48.34034 133.035695 51.073165 133.524493 L 53.739336 128.992002 C 52.161851 128.414332 50.584367 127.770008 49.206846 127.147901 C 40.941717 123.526353 36.453663 119.593751 36.453663 119.593751 L 43.496797 111.528585 C 43.496797 111.528585 46.518457 114.305846 53.583809 117.416378 C 60.626943 120.526911 71.402716 123.615225 86.000001 123.615225 C 100.597285 123.615225 111.373058 120.526911 118.416192 117.416378 C 125.481544 114.305846 128.503204 111.528585 128.503204 111.528585 L 135.546339 119.593751 C 135.546339 119.593751 131.058285 123.526353 122.793156 127.147901 C 121.415634 127.770008 119.83815 128.414332 118.260666 128.992002 L 120.926836 133.524493 C 123.659661 133.035695 128.236587 132.035881 134.035509 129.325274 C 140.678717 126.236959 146.944218 121.571161 150.321368 116.394346 C 150.099187 102.330296 147.255271 86.35549 143.611505 73.2246 C 141.722967 66.381428 139.634467 60.31589 137.723711 55.761182 C 135.87961 51.339782 133.835546 48.22925 133.879982 48.207032 C 125.948124 41.941531 116.372128 39.630849 111.373058 38.631035 C 111.128659 39.38645 110.906478 40.030775 110.684297 40.652881 C 117.638559 42.363674 125.059401 44.985409 131.858136 49.206846 L 126.148087 58.294044 C 112.195127 49.628989 92.176629 48.384776 86.000001 48.384776 C 79.823372 48.384776 59.804874 49.628989 45.851914 58.294044 L 40.141865 49.206846 C 46.940601 44.985409 54.361442 42.363674 61.315704 40.652881 C 61.093523 40.030775 60.871342 39.38645 60.626943 38.631035 C 55.627873 39.630849 46.051877 41.941531 38.120019 48.207032 Z M 77.268292 80.623223 C 79.512319 83.622665 80.623223 87.333086 80.623223 91.376778 C 80.623223 95.42047 79.512319 99.130891 77.268292 102.130333 C 75.024265 105.129775 71.336062 107.507111 67.181279 107.507111 C 63.026497 107.507111 59.360512 105.129775 57.116485 102.130333 C 54.872458 99.130891 53.739336 95.42047 53.739336 91.376778 C 53.739336 87.333086 54.872458 83.622665 57.116485 80.623223 C 59.360512 77.623781 63.026497 75.246446 67.181279 75.246446 C 71.336062 75.246446 75.024265 77.623781 77.268292 80.623223 Z M 114.883516 80.623223 C 117.127543 83.622665 118.260666 87.333086 118.260666 91.376778 C 118.260666 95.42047 117.127543 99.130891 114.883516 102.130333 C 112.639489 105.129775 108.973504 107.507111 104.818722 107.507111 C 100.663939 107.507111 96.975736 105.129775 94.73171 102.130333 C 92.487683 99.130891 91.376778 95.42047 91.376778 91.376778 C 91.376778 87.333086 92.487683 83.622665 94.73171 80.623223 C 96.975736 77.623781 100.663939 75.246446 104.818722 75.246446 C 108.973504 75.246446 112.639489 77.623781 114.883516 80.623223 Z M 65.848194 86.999815 C 65.181651 87.910756 64.492891 89.488241 64.492891 91.376778 C 64.492891 93.265316 65.181651 94.8428 65.848194 95.731524 C 66.514737 96.642465 66.892444 96.753556 67.181279 96.753556 C 67.492333 96.753556 67.87004 96.642465 68.536583 95.731524 C 69.203126 94.8428 69.869668 93.265316 69.869668 91.376778 C 69.869668 89.488241 69.203126 87.910756 68.536583 86.999815 C 67.87004 86.111091 67.492333 86.000001 67.181279 86.000001 C 66.892444 86.000001 66.514737 86.111091 65.848194 86.999815 Z M 103.463418 86.999815 C 102.796876 87.910756 102.130333 89.488241 102.130333 91.376778 C 102.130333 93.265316 102.796876 94.8428 103.463418 95.731524 C 104.129961 96.642465 104.507669 96.753556 104.818722 96.753556 C 105.107557 96.753556 105.485265 96.642465 106.151807 95.731524 C 106.81835 94.8428 107.507111 93.265316 107.507111 91.376778 C 107.507111 89.488241 106.81835 87.910756 106.151807 86.999815 C 105.485265 86.111091 105.107557 86.000001 104.818722 86.000001 C 104.507669 86.000001 104.129961 86.111091 103.463418 86.999815 Z M 103.463418 86.999815 " transform="matrix(0.175814,0,0,0.175814,0.88,0.88)"/>
<path style=" stroke:none;fill-rule:nonzero;fill:rgb(100%,100%,100%);fill-opacity:1;" d="M 12.839844 5.515625 L 12.101562 5.605469 C 12.101562 5.605469 8.789062 5.964844 6.371094 7.910156 L 6.34375 7.910156 L 6.3125 7.9375 C 5.769531 8.4375 5.535156 9.050781 5.160156 9.945312 C 4.789062 10.84375 4.390625 11.988281 4.039062 13.253906 C 3.339844 15.789062 2.769531 18.859375 2.769531 21.671875 L 2.769531 21.90625 L 2.886719 22.140625 C 3.761719 23.679688 5.316406 24.65625 6.757812 25.332031 C 8.195312 26.007812 9.441406 26.367188 10.300781 26.394531 L 10.863281 26.425781 L 11.15625 25.921875 L 12.191406 24.089844 C 13.285156 24.339844 14.550781 24.503906 16 24.503906 C 17.449219 24.503906 18.714844 24.339844 19.808594 24.089844 L 20.84375 25.921875 L 21.136719 26.425781 L 21.699219 26.394531 C 22.558594 26.367188 23.804688 26.007812 25.242188 25.332031 C 26.683594 24.65625 28.238281 23.679688 29.113281 22.140625 L 29.230469 21.90625 L 29.230469 21.671875 C 29.230469 18.859375 28.660156 15.789062 27.960938 13.253906 C 27.609375 11.988281 27.210938 10.84375 26.839844 9.945312 C 26.464844 9.050781 26.230469 8.4375 25.6875 7.9375 L 25.65625 7.910156 L 25.628906 7.910156 C 23.210938 5.964844 19.898438 5.605469 19.898438 5.605469 L 19.160156 5.515625 L 18.894531 6.195312 C 18.894531 6.195312 18.621094 6.886719 18.449219 7.671875 C 17.378906 7.527344 16.503906 7.496094 16 7.496094 C 15.496094 7.496094 14.621094 7.527344 13.550781 7.671875 C 13.378906 6.886719 13.105469 6.195312 13.105469 6.195312 Z M 11.539062 7.671875 C 11.582031 7.804688 11.621094 7.917969 11.660156 8.027344 C 10.4375 8.328125 9.132812 8.789062 7.9375 9.53125 L 8.941406 11.128906 C 11.394531 9.605469 14.914062 9.386719 16 9.386719 C 17.085938 9.386719 20.605469 9.605469 23.058594 11.128906 L 24.0625 9.53125 C 22.867188 8.789062 21.5625 8.328125 20.339844 8.027344 C 20.378906 7.917969 20.417969 7.804688 20.460938 7.671875 C 21.339844 7.847656 23.023438 8.253906 24.417969 9.355469 C 24.410156 9.359375 24.769531 9.90625 25.09375 10.683594 C 25.429688 11.484375 25.796875 12.550781 26.128906 13.753906 C 26.769531 16.0625 27.269531 18.871094 27.308594 21.34375 C 26.714844 22.253906 25.613281 23.074219 24.445312 23.617188 C 23.425781 24.09375 22.621094 24.269531 22.140625 24.355469 L 21.671875 23.558594 C 21.949219 23.457031 22.226562 23.34375 22.46875 23.234375 C 23.921875 22.597656 24.710938 21.90625 24.710938 21.90625 L 23.472656 20.488281 C 23.472656 20.488281 22.941406 20.976562 21.699219 21.523438 C 20.460938 22.070312 18.566406 22.613281 16 22.613281 C 13.433594 22.613281 11.539062 22.070312 10.300781 21.523438 C 9.058594 20.976562 8.527344 20.488281 8.527344 20.488281 L 7.289062 21.90625 C 7.289062 21.90625 8.078125 22.597656 9.53125 23.234375 C 9.773438 23.34375 10.050781 23.457031 10.328125 23.558594 L 9.859375 24.355469 C 9.378906 24.269531 8.574219 24.09375 7.554688 23.617188 C 6.386719 23.074219 5.285156 22.253906 4.691406 21.34375 C 4.730469 18.871094 5.230469 16.0625 5.871094 13.753906 C 6.203125 12.550781 6.570312 11.484375 6.90625 10.683594 C 7.230469 9.90625 7.589844 9.359375 7.582031 9.355469 C 8.976562 8.253906 10.660156 7.847656 11.539062 7.671875 Z M 12.691406 14.109375 C 11.960938 14.109375 11.316406 14.527344 10.921875 15.054688 C 10.527344 15.582031 10.328125 16.234375 10.328125 16.945312 C 10.328125 17.65625 10.527344 18.308594 10.921875 18.835938 C 11.316406 19.363281 11.960938 19.78125 12.691406 19.78125 C 13.421875 19.78125 14.070312 19.363281 14.464844 18.835938 C 14.859375 18.308594 15.054688 17.65625 15.054688 16.945312 C 15.054688 16.234375 14.859375 15.582031 14.464844 15.054688 C 14.070312 14.527344 13.421875 14.109375 12.691406 14.109375 Z M 19.308594 14.109375 C 18.578125 14.109375 17.929688 14.527344 17.535156 15.054688 C 17.140625 15.582031 16.945312 16.234375 16.945312 16.945312 C 16.945312 17.65625 17.140625 18.308594 17.535156 18.835938 C 17.929688 19.363281 18.578125 19.78125 19.308594 19.78125 C 20.039062 19.78125 20.683594 19.363281 21.078125 18.835938 C 21.472656 18.308594 21.671875 17.65625 21.671875 16.945312 C 21.671875 16.234375 21.472656 15.582031 21.078125 15.054688 C 20.683594 14.527344 20.039062 14.109375 19.308594 14.109375 Z M 12.691406 16 C 12.746094 16 12.8125 16.019531 12.929688 16.175781 C 13.046875 16.335938 13.164062 16.613281 13.164062 16.945312 C 13.164062 17.277344 13.046875 17.554688 12.929688 17.710938 C 12.8125 17.871094 12.746094 17.890625 12.691406 17.890625 C 12.640625 17.890625 12.574219 17.871094 12.457031 17.710938 C 12.339844 17.554688 12.21875 17.277344 12.21875 16.945312 C 12.21875 16.613281 12.339844 16.335938 12.457031 16.175781 C 12.574219 16.019531 12.640625 16 12.691406 16 Z M 19.308594 16 C 19.359375 16 19.425781 16.019531 19.542969 16.175781 C 19.660156 16.335938 19.78125 16.613281 19.78125 16.945312 C 19.78125 17.277344 19.660156 17.554688 19.542969 17.710938 C 19.425781 17.871094 19.359375 17.890625 19.308594 17.890625 C 19.253906 17.890625 19.1875 17.871094 19.070312 17.710938 C 18.953125 17.554688 18.835938 17.277344 18.835938 16.945312 C 18.835938 16.613281 18.953125 16.335938 19.070312 16.175781 C 19.1875 16.019531 19.253906 16 19.308594 16 Z M 19.308594 16 "/>
</g>
</svg>
